# xmcd
#
# Track frame offsets: 
#        150
#        25365
#        52447
#        82562
#        95077
#
# Disc length: 1470 seconds
#
# Revision: 0
# Processed by: cddbd v1.4b42PL1 Copyright (c) Steve Scherf et al.
# Submitted via: ExactAudioCopy v0.90a11
#
DISCID=3a05bc05
DTITLE=The All Seeing I - Jockey Slut free CD
DYEAR=1900
DGENRE=
TTITLE0=Give U.D.I.
TTITLE1=Pickled Eggs and Sherbert
TTITLE2=Bumpy Music
TTITLE3=The Gods and Sheffield
TTITLE4=Wanderin' I
EXTD=
EXTT0=
EXTT1=
EXTT2=
EXTT3=
EXTT4=
PLAYORDER=
